<svg id="visual" viewBox="0 0 4180 1980" width="4180" height="1980" xmlns="http://www.w3.org/2000/svg" xmlns:xlink="http://www.w3.org/1999/xlink" version="1.1"><rect x="0" y="0" width="4180" height="1980" fill="#001220"></rect><path d="M0 978L69.7 1038.7C139.3 1099.3 278.7 1220.7 418 1282.5C557.3 1344.3 696.7 1346.7 836 1350.8C975.3 1355 1114.7 1361 1254 1334.2C1393.3 1307.3 1532.7 1247.7 1672 1174C1811.3 1100.3 1950.7 1012.7 2090 981.3C2229.3 950 2368.7 975 2508 1041.2C2647.3 1107.3 2786.7 1214.7 2926 1262.7C3065.3 1310.7 3204.7 1299.3 3344 1235.3C3483.3 1171.3 3622.7 1054.7 3762 1072.5C3901.3 1090.3 4040.7 1242.7 4110.3 1318.8L4180 1395L4180 1981L4110.3 1981C4040.7 1981 3901.3 1981 3762 1981C3622.7 1981 3483.3 1981 3344 1981C3204.7 1981 3065.3 1981 2926 1981C2786.7 1981 2647.3 1981 2508 1981C2368.7 1981 2229.3 1981 2090 1981C1950.7 1981 1811.3 1981 1672 1981C1532.7 1981 1393.3 1981 1254 1981C1114.7 1981 975.3 1981 836 1981C696.7 1981 557.3 1981 418 1981C278.7 1981 139.3 1981 69.7 1981L0 1981Z" fill="#6a0ee8"></path><path d="M0 1032L69.7 1087C139.3 1142 278.7 1252 418 1320.5C557.3 1389 696.7 1416 836 1380.2C975.3 1344.3 1114.7 1245.7 1254 1253.3C1393.3 1261 1532.7 1375 1672 1385.5C1811.3 1396 1950.7 1303 2090 1293.5C2229.3 1284 2368.7 1358 2508 1391.3C2647.3 1424.7 2786.7 1417.3 2926 1391.2C3065.3 1365 3204.7 1320 3344 1290.3C3483.3 1260.7 3622.7 1246.3 3762 1218.7C3901.3 1191 4040.7 1150 4110.3 1129.5L4180 1109L4180 1981L4110.3 1981C4040.7 1981 3901.3 1981 3762 1981C3622.7 1981 3483.3 1981 3344 1981C3204.7 1981 3065.3 1981 2926 1981C2786.7 1981 2647.3 1981 2508 1981C2368.7 1981 2229.3 1981 2090 1981C1950.7 1981 1811.3 1981 1672 1981C1532.7 1981 1393.3 1981 1254 1981C1114.7 1981 975.3 1981 836 1981C696.7 1981 557.3 1981 418 1981C278.7 1981 139.3 1981 69.7 1981L0 1981Z" fill="#5517ed"></path><path d="M0 1559L69.7 1549.7C139.3 1540.3 278.7 1521.7 418 1521.7C557.3 1521.7 696.7 1540.3 836 1548.2C975.3 1556 1114.7 1553 1254 1534.3C1393.3 1515.7 1532.7 1481.3 1672 1418C1811.3 1354.7 1950.7 1262.3 2090 1246.5C2229.3 1230.7 2368.7 1291.3 2508 1329C2647.3 1366.7 2786.7 1381.3 2926 1401.3C3065.3 1421.3 3204.7 1446.7 3344 1436C3483.3 1425.3 3622.7 1378.7 3762 1365.2C3901.3 1351.7 4040.7 1371.3 4110.3 1381.2L4180 1391L4180 1981L4110.3 1981C4040.7 1981 3901.3 1981 3762 1981C3622.7 1981 3483.3 1981 3344 1981C3204.7 1981 3065.3 1981 2926 1981C2786.7 1981 2647.3 1981 2508 1981C2368.7 1981 2229.3 1981 2090 1981C1950.7 1981 1811.3 1981 1672 1981C1532.7 1981 1393.3 1981 1254 1981C1114.7 1981 975.3 1981 836 1981C696.7 1981 557.3 1981 418 1981C278.7 1981 139.3 1981 69.7 1981L0 1981Z" fill="#361ff1"></path><path d="M0 1496L69.7 1475.2C139.3 1454.3 278.7 1412.7 418 1409.8C557.3 1407 696.7 1443 836 1435.3C975.3 1427.7 1114.7 1376.3 1254 1400.7C1393.3 1425 1532.7 1525 1672 1575.3C1811.3 1625.7 1950.7 1626.3 2090 1590C2229.3 1553.7 2368.7 1480.3 2508 1428.5C2647.3 1376.7 2786.7 1346.3 2926 1368.2C3065.3 1390 3204.7 1464 3344 1508.7C3483.3 1553.3 3622.7 1568.7 3762 1581.5C3901.3 1594.3 4040.7 1604.7 4110.3 1609.8L4180 1615L4180 1981L4110.3 1981C4040.7 1981 3901.3 1981 3762 1981C3622.7 1981 3483.3 1981 3344 1981C3204.7 1981 3065.3 1981 2926 1981C2786.7 1981 2647.3 1981 2508 1981C2368.7 1981 2229.3 1981 2090 1981C1950.7 1981 1811.3 1981 1672 1981C1532.7 1981 1393.3 1981 1254 1981C1114.7 1981 975.3 1981 836 1981C696.7 1981 557.3 1981 418 1981C278.7 1981 139.3 1981 69.7 1981L0 1981Z" fill="#2121f3"></path><path d="M0 1601L69.7 1612.5C139.3 1624 278.7 1647 418 1671.5C557.3 1696 696.7 1722 836 1689.5C975.3 1657 1114.7 1566 1254 1528.2C1393.3 1490.3 1532.7 1505.7 1672 1525.2C1811.3 1544.7 1950.7 1568.3 2090 1606.7C2229.3 1645 2368.7 1698 2508 1711.2C2647.3 1724.3 2786.7 1697.7 2926 1689.3C3065.3 1681 3204.7 1691 3344 1685.2C3483.3 1679.3 3622.7 1657.7 3762 1614.7C3901.3 1571.7 4040.7 1507.3 4110.3 1475.2L4180 1443L4180 1981L4110.3 1981C4040.7 1981 3901.3 1981 3762 1981C3622.7 1981 3483.3 1981 3344 1981C3204.7 1981 3065.3 1981 2926 1981C2786.7 1981 2647.3 1981 2508 1981C2368.7 1981 2229.3 1981 2090 1981C1950.7 1981 1811.3 1981 1672 1981C1532.7 1981 1393.3 1981 1254 1981C1114.7 1981 975.3 1981 836 1981C696.7 1981 557.3 1981 418 1981C278.7 1981 139.3 1981 69.7 1981L0 1981Z" fill="#361ff1"></path><path d="M0 1821L69.7 1817.5C139.3 1814 278.7 1807 418 1783.8C557.3 1760.7 696.7 1721.3 836 1687.7C975.3 1654 1114.7 1626 1254 1626.5C1393.3 1627 1532.7 1656 1672 1686.8C1811.3 1717.7 1950.7 1750.3 2090 1768.2C2229.3 1786 2368.7 1789 2508 1785.3C2647.3 1781.7 2786.7 1771.3 2926 1759.8C3065.3 1748.3 3204.7 1735.7 3344 1743C3483.3 1750.3 3622.7 1777.7 3762 1777.5C3901.3 1777.3 4040.7 1749.7 4110.3 1735.8L4180 1722L4180 1981L4110.3 1981C4040.7 1981 3901.3 1981 3762 1981C3622.7 1981 3483.3 1981 3344 1981C3204.7 1981 3065.3 1981 2926 1981C2786.7 1981 2647.3 1981 2508 1981C2368.7 1981 2229.3 1981 2090 1981C1950.7 1981 1811.3 1981 1672 1981C1532.7 1981 1393.3 1981 1254 1981C1114.7 1981 975.3 1981 836 1981C696.7 1981 557.3 1981 418 1981C278.7 1981 139.3 1981 69.7 1981L0 1981Z" fill="#5517ed"></path><path d="M0 1772L69.7 1774.8C139.3 1777.7 278.7 1783.3 418 1801.5C557.3 1819.7 696.7 1850.3 836 1856.3C975.3 1862.3 1114.7 1843.7 1254 1836.7C1393.3 1829.7 1532.7 1834.3 1672 1840.8C1811.3 1847.3 1950.7 1855.7 2090 1846C2229.3 1836.3 2368.7 1808.7 2508 1787.7C2647.3 1766.7 2786.7 1752.3 2926 1751.8C3065.3 1751.3 3204.7 1764.7 3344 1766C3483.3 1767.3 3622.7 1756.7 3762 1756.7C3901.3 1756.7 4040.7 1767.3 4110.3 1772.7L4180 1778L4180 1981L4110.3 1981C4040.7 1981 3901.3 1981 3762 1981C3622.7 1981 3483.3 1981 3344 1981C3204.7 1981 3065.3 1981 2926 1981C2786.7 1981 2647.3 1981 2508 1981C2368.7 1981 2229.3 1981 2090 1981C1950.7 1981 1811.3 1981 1672 1981C1532.7 1981 1393.3 1981 1254 1981C1114.7 1981 975.3 1981 836 1981C696.7 1981 557.3 1981 418 1981C278.7 1981 139.3 1981 69.7 1981L0 1981Z" fill="#6a0ee8"></path></svg>