<svg id="visual" viewBox="0 0 4180 1980" width="4180" height="1980" xmlns="http://www.w3.org/2000/svg" xmlns:xlink="http://www.w3.org/1999/xlink" version="1.1"><g stroke-width="1" stroke-linejoin="bevel"><path d="M1875.4 1024L1814.4 1419L2376.6 1435Z" fill="#112e42" stroke="#112e42"></path><path d="M2376.6 1435L2413.6 943L1875.4 1024Z" fill="#1d4e6b" stroke="#1d4e6b"></path><path d="M1766.4 1980L2421.6 1980L2376.6 1435Z" fill="#0c2435" stroke="#0c2435"></path><path d="M2376.6 1435L2965.7 1423L2413.6 943Z" fill="#081a28" stroke="#081a28"></path><path d="M1814.4 1419L1766.4 1980L2376.6 1435Z" fill="#15384f" stroke="#15384f"></path><path d="M2355.6 475L1772.4 517L1875.4 1024Z" fill="#19435d" stroke="#19435d"></path><path d="M1095.3 1059L1146.3 1411L1814.4 1419Z" fill="#19435d" stroke="#19435d"></path><path d="M1814.4 1419L1146.3 1411L1766.4 1980Z" fill="#0c2435" stroke="#0c2435"></path><path d="M2413.6 943L2355.6 475L1875.4 1024Z" fill="#297ea6" stroke="#297ea6"></path><path d="M2885.7 1980L2965.7 1423L2376.6 1435Z" fill="#297ea6" stroke="#297ea6"></path><path d="M2413.6 943L3034.7 589L2355.6 475Z" fill="#19435d" stroke="#19435d"></path><path d="M1095.3 1059L1814.4 1419L1875.4 1024Z" fill="#246688" stroke="#246688"></path><path d="M2965.7 1423L3016.7 946L2413.6 943Z" fill="#205a7a" stroke="#205a7a"></path><path d="M1772.4 517L1095.3 1059L1875.4 1024Z" fill="#00101c" stroke="#00101c"></path><path d="M2421.6 1980L2885.7 1980L2376.6 1435Z" fill="#19435d" stroke="#19435d"></path><path d="M3016.7 946L3034.7 589L2413.6 943Z" fill="#0c2435" stroke="#0c2435"></path><path d="M672.1 1463L1144.3 1980L1146.3 1411Z" fill="#19435d" stroke="#19435d"></path><path d="M1146.3 1411L1144.3 1980L1766.4 1980Z" fill="#1d4e6b" stroke="#1d4e6b"></path><path d="M1772.4 517L1107.3 585L1095.3 1059Z" fill="#246688" stroke="#246688"></path><path d="M2355.6 475L1877.4 0L1772.4 517Z" fill="#00101c" stroke="#00101c"></path><path d="M1772.4 517L1172.3 0L1107.3 585Z" fill="#246688" stroke="#246688"></path><path d="M2374.6 0L1877.4 0L2355.6 475Z" fill="#205a7a" stroke="#205a7a"></path><path d="M2991.7 0L2374.6 0L2355.6 475Z" fill="#00101c" stroke="#00101c"></path><path d="M1095.3 1059L672.1 1463L1146.3 1411Z" fill="#15384f" stroke="#15384f"></path><path d="M519.1 922L672.1 1463L1095.3 1059Z" fill="#246688" stroke="#246688"></path><path d="M2965.7 1423L3543.9 1458L3016.7 946Z" fill="#1d4e6b" stroke="#1d4e6b"></path><path d="M3016.7 946L3651.9 995L3034.7 589Z" fill="#246688" stroke="#246688"></path><path d="M2885.7 1980L3543.9 1458L2965.7 1423Z" fill="#0c2435" stroke="#0c2435"></path><path d="M3553.9 0L2991.7 0L3034.7 589Z" fill="#277297" stroke="#277297"></path><path d="M3034.7 589L2991.7 0L2355.6 475Z" fill="#205a7a" stroke="#205a7a"></path><path d="M1877.4 0L1172.3 0L1772.4 517Z" fill="#297ea6" stroke="#297ea6"></path><path d="M1107.3 585L671.1 525L1095.3 1059Z" fill="#15384f" stroke="#15384f"></path><path d="M3543.9 1458L3651.9 995L3016.7 946Z" fill="#15384f" stroke="#15384f"></path><path d="M1172.3 0L671.1 525L1107.3 585Z" fill="#246688" stroke="#246688"></path><path d="M671.1 525L519.1 922L1095.3 1059Z" fill="#15384f" stroke="#15384f"></path><path d="M2885.7 1980L3623.9 1980L3543.9 1458Z" fill="#19435d" stroke="#19435d"></path><path d="M3543.9 1458L4180 1480L3651.9 995Z" fill="#277297" stroke="#277297"></path><path d="M0 1408L516.1 1980L672.1 1463Z" fill="#297ea6" stroke="#297ea6"></path><path d="M672.1 1463L516.1 1980L1144.3 1980Z" fill="#081a28" stroke="#081a28"></path><path d="M3651.9 995L3657.9 422L3034.7 589Z" fill="#297ea6" stroke="#297ea6"></path><path d="M3657.9 422L3553.9 0L3034.7 589Z" fill="#19435d" stroke="#19435d"></path><path d="M0 503L0 1040L519.1 922Z" fill="#15384f" stroke="#15384f"></path><path d="M1172.3 0L575.1 0L671.1 525Z" fill="#205a7a" stroke="#205a7a"></path><path d="M3623.9 1980L4180 1480L3543.9 1458Z" fill="#297ea6" stroke="#297ea6"></path><path d="M3651.9 995L4180 930L3657.9 422Z" fill="#00101c" stroke="#00101c"></path><path d="M3657.9 422L4180 0L3553.9 0Z" fill="#246688" stroke="#246688"></path><path d="M519.1 922L0 1408L672.1 1463Z" fill="#0c2435" stroke="#0c2435"></path><path d="M0 1040L0 1408L519.1 922Z" fill="#00101c" stroke="#00101c"></path><path d="M4180 1480L4180 930L3651.9 995Z" fill="#297ea6" stroke="#297ea6"></path><path d="M0 503L519.1 922L671.1 525Z" fill="#0c2435" stroke="#0c2435"></path><path d="M3623.9 1980L4180 1980L4180 1480Z" fill="#00101c" stroke="#00101c"></path><path d="M0 1408L0 1980L516.1 1980Z" fill="#00101c" stroke="#00101c"></path><path d="M575.1 0L0 503L671.1 525Z" fill="#081a28" stroke="#081a28"></path><path d="M4180 930L4180 446L3657.9 422Z" fill="#297ea6" stroke="#297ea6"></path><path d="M4180 446L4180 0L3657.9 422Z" fill="#297ea6" stroke="#297ea6"></path><path d="M575.1 0L0 0L0 503Z" fill="#246688" stroke="#246688"></path></g></svg>