<svg id="visual" viewBox="0 0 900 600" width="900" height="600" xmlns="http://www.w3.org/2000/svg" xmlns:xlink="http://www.w3.org/1999/xlink" version="1.1"><rect x="0" y="0" width="900" height="600" fill="#011247"></rect><defs><linearGradient id="grad1_0" x1="33.3%" y1="100%" x2="100%" y2="0%"><stop offset="20%" stop-color="#530494" stop-opacity="1"></stop><stop offset="80%" stop-color="#530494" stop-opacity="1"></stop></linearGradient></defs><defs><linearGradient id="grad1_1" x1="33.3%" y1="100%" x2="100%" y2="0%"><stop offset="20%" stop-color="#530494" stop-opacity="1"></stop><stop offset="80%" stop-color="#450e8a" stop-opacity="1"></stop></linearGradient></defs><defs><linearGradient id="grad1_2" x1="33.3%" y1="100%" x2="100%" y2="0%"><stop offset="20%" stop-color="#371380" stop-opacity="1"></stop><stop offset="80%" stop-color="#450e8a" stop-opacity="1"></stop></linearGradient></defs><defs><linearGradient id="grad1_3" x1="33.3%" y1="100%" x2="100%" y2="0%"><stop offset="20%" stop-color="#371380" stop-opacity="1"></stop><stop offset="80%" stop-color="#2a1575" stop-opacity="1"></stop></linearGradient></defs><defs><linearGradient id="grad1_4" x1="33.3%" y1="100%" x2="100%" y2="0%"><stop offset="20%" stop-color="#1e166a" stop-opacity="1"></stop><stop offset="80%" stop-color="#2a1575" stop-opacity="1"></stop></linearGradient></defs><defs><linearGradient id="grad1_5" x1="33.3%" y1="100%" x2="100%" y2="0%"><stop offset="20%" stop-color="#1e166a" stop-opacity="1"></stop><stop offset="80%" stop-color="#12155f" stop-opacity="1"></stop></linearGradient></defs><defs><linearGradient id="grad1_6" x1="33.3%" y1="100%" x2="100%" y2="0%"><stop offset="20%" stop-color="#071453" stop-opacity="1"></stop><stop offset="80%" stop-color="#12155f" stop-opacity="1"></stop></linearGradient></defs><defs><linearGradient id="grad1_7" x1="33.3%" y1="100%" x2="100%" y2="0%"><stop offset="20%" stop-color="#071453" stop-opacity="1"></stop><stop offset="80%" stop-color="#011247" stop-opacity="1"></stop></linearGradient></defs><defs><linearGradient id="grad2_0" x1="0%" y1="100%" x2="66.7%" y2="0%"><stop offset="20%" stop-color="#530494" stop-opacity="1"></stop><stop offset="80%" stop-color="#530494" stop-opacity="1"></stop></linearGradient></defs><defs><linearGradient id="grad2_1" x1="0%" y1="100%" x2="66.7%" y2="0%"><stop offset="20%" stop-color="#450e8a" stop-opacity="1"></stop><stop offset="80%" stop-color="#530494" stop-opacity="1"></stop></linearGradient></defs><defs><linearGradient id="grad2_2" x1="0%" y1="100%" x2="66.7%" y2="0%"><stop offset="20%" stop-color="#450e8a" stop-opacity="1"></stop><stop offset="80%" stop-color="#371380" stop-opacity="1"></stop></linearGradient></defs><defs><linearGradient id="grad2_3" x1="0%" y1="100%" x2="66.7%" y2="0%"><stop offset="20%" stop-color="#2a1575" stop-opacity="1"></stop><stop offset="80%" stop-color="#371380" stop-opacity="1"></stop></linearGradient></defs><defs><linearGradient id="grad2_4" x1="0%" y1="100%" x2="66.7%" y2="0%"><stop offset="20%" stop-color="#2a1575" stop-opacity="1"></stop><stop offset="80%" stop-color="#1e166a" stop-opacity="1"></stop></linearGradient></defs><defs><linearGradient id="grad2_5" x1="0%" y1="100%" x2="66.7%" y2="0%"><stop offset="20%" stop-color="#12155f" stop-opacity="1"></stop><stop offset="80%" stop-color="#1e166a" stop-opacity="1"></stop></linearGradient></defs><defs><linearGradient id="grad2_6" x1="0%" y1="100%" x2="66.7%" y2="0%"><stop offset="20%" stop-color="#12155f" stop-opacity="1"></stop><stop offset="80%" stop-color="#071453" stop-opacity="1"></stop></linearGradient></defs><defs><linearGradient id="grad2_7" x1="0%" y1="100%" x2="66.7%" y2="0%"><stop offset="20%" stop-color="#011247" stop-opacity="1"></stop><stop offset="80%" stop-color="#071453" stop-opacity="1"></stop></linearGradient></defs><g transform="translate(900, 600)"><path d="M-459.7 0C-446.4 -57.4 -433.1 -114.8 -413 -171.1C-392.9 -227.4 -365.9 -282.6 -325.1 -325.1C-284.2 -367.5 -229.5 -397.3 -173 -417.6C-116.5 -437.9 -58.2 -448.8 0 -459.7L0 0Z" fill="#04134d"></path><path d="M-402.2 0C-390.6 -50.2 -379 -100.4 -361.4 -149.7C-343.7 -198.9 -320.2 -247.3 -284.4 -284.4C-248.7 -321.6 -200.8 -347.6 -151.4 -365.4C-101.9 -383.2 -51 -392.7 0 -402.2L0 0Z" fill="#0d1559"></path><path d="M-344.8 0C-334.8 -43 -324.8 -86.1 -309.7 -128.3C-294.6 -170.5 -274.4 -211.9 -243.8 -243.8C-213.2 -275.7 -172.1 -298 -129.7 -313.2C-87.4 -328.4 -43.7 -336.6 0 -344.8L0 0Z" fill="#181664"></path><path d="M-287.3 0C-279 -35.9 -270.7 -71.7 -258.1 -106.9C-245.5 -142.1 -228.7 -176.6 -203.2 -203.2C-177.6 -229.7 -143.4 -248.3 -108.1 -261C-72.8 -273.7 -36.4 -280.5 0 -287.3L0 0Z" fill="#241670"></path><path d="M-229.9 0C-223.2 -28.7 -216.5 -57.4 -206.5 -85.5C-196.4 -113.7 -183 -141.3 -162.5 -162.5C-142.1 -183.8 -114.7 -198.6 -86.5 -208.8C-58.2 -219 -29.1 -224.4 0 -229.9L0 0Z" fill="#30147b"></path><path d="M-172.4 0C-167.4 -21.5 -162.4 -43 -154.9 -64.1C-147.3 -85.3 -137.2 -106 -121.9 -121.9C-106.6 -137.8 -86.1 -149 -64.9 -156.6C-43.7 -164.2 -21.8 -168.3 0 -172.4L0 0Z" fill="#3e1185"></path><path d="M-114.9 0C-111.6 -14.3 -108.3 -28.7 -103.2 -42.8C-98.2 -56.8 -91.5 -70.6 -81.3 -81.3C-71.1 -91.9 -57.4 -99.3 -43.2 -104.4C-29.1 -109.5 -14.6 -112.2 0 -114.9L0 0Z" fill="#4c0a8f"></path><path d="M-57.5 0C-55.8 -7.2 -54.1 -14.3 -51.6 -21.4C-49.1 -28.4 -45.7 -35.3 -40.6 -40.6C-35.5 -45.9 -28.7 -49.7 -21.6 -52.2C-14.6 -54.7 -7.3 -56.1 0 -57.5L0 0Z" fill="#530494"></path></g><g transform="translate(0, 0)"><path d="M459.7 0C448.2 58.4 436.6 116.8 415.7 172.2C394.9 227.6 364.7 279.9 323.9 323.9C283.1 367.8 231.7 403.5 175.9 424.7C120.2 446 60.1 452.8 0 459.7L0 0Z" fill="#04134d"></path><path d="M402.2 0C392.1 51.1 382 102.2 363.8 150.7C345.5 199.1 319.1 244.9 283.4 283.4C247.7 321.8 202.7 353 153.9 371.6C105.2 390.2 52.6 396.2 0 402.2L0 0Z" fill="#0d1559"></path><path d="M344.8 0C336.1 43.8 327.5 87.6 311.8 129.2C296.2 170.7 273.5 209.9 242.9 242.9C212.3 275.9 173.7 302.6 131.9 318.5C90.1 334.5 45.1 339.6 0 344.8L0 0Z" fill="#181664"></path><path d="M287.3 0C280.1 36.5 272.9 73 259.8 107.6C246.8 142.2 227.9 174.9 202.4 202.4C176.9 229.9 144.8 252.2 110 265.4C75.1 278.7 37.6 283 0 287.3L0 0Z" fill="#241670"></path><path d="M229.9 0C224.1 29.2 218.3 58.4 207.9 86.1C197.4 113.8 182.3 139.9 161.9 161.9C141.5 183.9 115.8 201.7 88 212.4C60.1 223 30 226.4 0 229.9L0 0Z" fill="#30147b"></path><path d="M172.4 0C168.1 21.9 163.7 43.8 155.9 64.6C148.1 85.3 136.7 105 121.4 121.4C106.1 137.9 86.9 151.3 66 159.3C45.1 167.2 22.5 169.8 0 172.4L0 0Z" fill="#3e1185"></path><path d="M114.9 0C112 14.6 109.2 29.2 103.9 43.1C98.7 56.9 91.2 70 81 81C70.8 92 57.9 100.9 44 106.2C30 111.5 15 113.2 0 114.9L0 0Z" fill="#4c0a8f"></path><path d="M57.5 0C56 7.3 54.6 14.6 52 21.5C49.4 28.4 45.6 35 40.5 40.5C35.4 46 29 50.4 22 53.1C15 55.7 7.5 56.6 0 57.5L0 0Z" fill="#530494"></path></g></svg>