<svg id="visual" viewBox="0 0 900 600" width="900" height="600" xmlns="http://www.w3.org/2000/svg" xmlns:xlink="http://www.w3.org/1999/xlink" version="1.1"><rect x="0" y="0" width="900" height="600" fill="#011247"></rect><defs><linearGradient id="grad1_0" x1="33.3%" y1="0%" x2="100%" y2="100%"><stop offset="20%" stop-color="#530494" stop-opacity="1"></stop><stop offset="80%" stop-color="#530494" stop-opacity="1"></stop></linearGradient></defs><defs><linearGradient id="grad1_1" x1="33.3%" y1="0%" x2="100%" y2="100%"><stop offset="20%" stop-color="#530494" stop-opacity="1"></stop><stop offset="80%" stop-color="#450e8a" stop-opacity="1"></stop></linearGradient></defs><defs><linearGradient id="grad1_2" x1="33.3%" y1="0%" x2="100%" y2="100%"><stop offset="20%" stop-color="#371380" stop-opacity="1"></stop><stop offset="80%" stop-color="#450e8a" stop-opacity="1"></stop></linearGradient></defs><defs><linearGradient id="grad1_3" x1="33.3%" y1="0%" x2="100%" y2="100%"><stop offset="20%" stop-color="#371380" stop-opacity="1"></stop><stop offset="80%" stop-color="#2a1575" stop-opacity="1"></stop></linearGradient></defs><defs><linearGradient id="grad1_4" x1="33.3%" y1="0%" x2="100%" y2="100%"><stop offset="20%" stop-color="#1e166a" stop-opacity="1"></stop><stop offset="80%" stop-color="#2a1575" stop-opacity="1"></stop></linearGradient></defs><defs><linearGradient id="grad1_5" x1="33.3%" y1="0%" x2="100%" y2="100%"><stop offset="20%" stop-color="#1e166a" stop-opacity="1"></stop><stop offset="80%" stop-color="#12155f" stop-opacity="1"></stop></linearGradient></defs><defs><linearGradient id="grad1_6" x1="33.3%" y1="0%" x2="100%" y2="100%"><stop offset="20%" stop-color="#071453" stop-opacity="1"></stop><stop offset="80%" stop-color="#12155f" stop-opacity="1"></stop></linearGradient></defs><defs><linearGradient id="grad1_7" x1="33.3%" y1="0%" x2="100%" y2="100%"><stop offset="20%" stop-color="#071453" stop-opacity="1"></stop><stop offset="80%" stop-color="#011247" stop-opacity="1"></stop></linearGradient></defs><defs><linearGradient id="grad2_0" x1="0%" y1="0%" x2="66.7%" y2="100%"><stop offset="20%" stop-color="#530494" stop-opacity="1"></stop><stop offset="80%" stop-color="#530494" stop-opacity="1"></stop></linearGradient></defs><defs><linearGradient id="grad2_1" x1="0%" y1="0%" x2="66.7%" y2="100%"><stop offset="20%" stop-color="#450e8a" stop-opacity="1"></stop><stop offset="80%" stop-color="#530494" stop-opacity="1"></stop></linearGradient></defs><defs><linearGradient id="grad2_2" x1="0%" y1="0%" x2="66.7%" y2="100%"><stop offset="20%" stop-color="#450e8a" stop-opacity="1"></stop><stop offset="80%" stop-color="#371380" stop-opacity="1"></stop></linearGradient></defs><defs><linearGradient id="grad2_3" x1="0%" y1="0%" x2="66.7%" y2="100%"><stop offset="20%" stop-color="#2a1575" stop-opacity="1"></stop><stop offset="80%" stop-color="#371380" stop-opacity="1"></stop></linearGradient></defs><defs><linearGradient id="grad2_4" x1="0%" y1="0%" x2="66.7%" y2="100%"><stop offset="20%" stop-color="#2a1575" stop-opacity="1"></stop><stop offset="80%" stop-color="#1e166a" stop-opacity="1"></stop></linearGradient></defs><defs><linearGradient id="grad2_5" x1="0%" y1="0%" x2="66.7%" y2="100%"><stop offset="20%" stop-color="#12155f" stop-opacity="1"></stop><stop offset="80%" stop-color="#1e166a" stop-opacity="1"></stop></linearGradient></defs><defs><linearGradient id="grad2_6" x1="0%" y1="0%" x2="66.7%" y2="100%"><stop offset="20%" stop-color="#12155f" stop-opacity="1"></stop><stop offset="80%" stop-color="#071453" stop-opacity="1"></stop></linearGradient></defs><defs><linearGradient id="grad2_7" x1="0%" y1="0%" x2="66.7%" y2="100%"><stop offset="20%" stop-color="#011247" stop-opacity="1"></stop><stop offset="80%" stop-color="#071453" stop-opacity="1"></stop></linearGradient></defs><g transform="translate(900, 0)"><path d="M0 459.7C-57.4 446.4 -114.8 433.1 -171.1 413C-227.4 392.9 -282.6 365.9 -325.1 325.1C-367.5 284.2 -397.3 229.5 -417.6 173C-437.9 116.5 -448.8 58.2 -459.7 0L0 0Z" fill="#04134d"></path><path d="M0 402.2C-50.2 390.6 -100.4 379 -149.7 361.4C-198.9 343.7 -247.3 320.2 -284.4 284.4C-321.6 248.7 -347.6 200.8 -365.4 151.4C-383.2 101.9 -392.7 51 -402.2 0L0 0Z" fill="#0d1559"></path><path d="M0 344.8C-43 334.8 -86.1 324.8 -128.3 309.7C-170.5 294.6 -211.9 274.4 -243.8 243.8C-275.7 213.2 -298 172.1 -313.2 129.7C-328.4 87.4 -336.6 43.7 -344.8 0L0 0Z" fill="#181664"></path><path d="M0 287.3C-35.9 279 -71.7 270.7 -106.9 258.1C-142.1 245.5 -176.6 228.7 -203.2 203.2C-229.7 177.6 -248.3 143.4 -261 108.1C-273.7 72.8 -280.5 36.4 -287.3 0L0 0Z" fill="#241670"></path><path d="M0 229.9C-28.7 223.2 -57.4 216.5 -85.5 206.5C-113.7 196.4 -141.3 183 -162.5 162.5C-183.8 142.1 -198.6 114.7 -208.8 86.5C-219 58.2 -224.4 29.1 -229.9 0L0 0Z" fill="#30147b"></path><path d="M0 172.4C-21.5 167.4 -43 162.4 -64.1 154.9C-85.3 147.3 -106 137.2 -121.9 121.9C-137.8 106.6 -149 86.1 -156.6 64.9C-164.2 43.7 -168.3 21.8 -172.4 0L0 0Z" fill="#3e1185"></path><path d="M0 114.9C-14.3 111.6 -28.7 108.3 -42.8 103.2C-56.8 98.2 -70.6 91.5 -81.3 81.3C-91.9 71.1 -99.3 57.4 -104.4 43.2C-109.5 29.1 -112.2 14.6 -114.9 0L0 0Z" fill="#4c0a8f"></path><path d="M0 57.5C-7.2 55.8 -14.3 54.1 -21.4 51.6C-28.4 49.1 -35.3 45.7 -40.6 40.6C-45.9 35.5 -49.7 28.7 -52.2 21.6C-54.7 14.6 -56.1 7.3 -57.5 0L0 0Z" fill="#530494"></path></g><g transform="translate(0, 600)"><path d="M0 -459.7C58.4 -448.2 116.8 -436.6 172.2 -415.7C227.6 -394.9 279.9 -364.7 323.9 -323.9C367.8 -283.1 403.5 -231.7 424.7 -175.9C446 -120.2 452.8 -60.1 459.7 0L0 0Z" fill="#04134d"></path><path d="M0 -402.2C51.1 -392.1 102.2 -382 150.7 -363.8C199.1 -345.5 244.9 -319.1 283.4 -283.4C321.8 -247.7 353 -202.7 371.6 -153.9C390.2 -105.2 396.2 -52.6 402.2 0L0 0Z" fill="#0d1559"></path><path d="M0 -344.8C43.8 -336.1 87.6 -327.5 129.2 -311.8C170.7 -296.2 209.9 -273.5 242.9 -242.9C275.9 -212.3 302.6 -173.7 318.5 -131.9C334.5 -90.1 339.6 -45.1 344.8 0L0 0Z" fill="#181664"></path><path d="M0 -287.3C36.5 -280.1 73 -272.9 107.6 -259.8C142.2 -246.8 174.9 -227.9 202.4 -202.4C229.9 -176.9 252.2 -144.8 265.4 -110C278.7 -75.1 283 -37.6 287.3 0L0 0Z" fill="#241670"></path><path d="M0 -229.9C29.2 -224.1 58.4 -218.3 86.1 -207.9C113.8 -197.4 139.9 -182.3 161.9 -161.9C183.9 -141.5 201.7 -115.8 212.4 -88C223 -60.1 226.4 -30 229.9 0L0 0Z" fill="#30147b"></path><path d="M0 -172.4C21.9 -168.1 43.8 -163.7 64.6 -155.9C85.3 -148.1 105 -136.7 121.4 -121.4C137.9 -106.1 151.3 -86.9 159.3 -66C167.2 -45.1 169.8 -22.5 172.4 0L0 0Z" fill="#3e1185"></path><path d="M0 -114.9C14.6 -112 29.2 -109.2 43.1 -103.9C56.9 -98.7 70 -91.2 81 -81C92 -70.8 100.9 -57.9 106.2 -44C111.5 -30 113.2 -15 114.9 0L0 0Z" fill="#4c0a8f"></path><path d="M0 -57.5C7.3 -56 14.6 -54.6 21.5 -52C28.4 -49.4 35 -45.6 40.5 -40.5C46 -35.4 50.4 -29 53.1 -22C55.7 -15 56.6 -7.5 57.5 0L0 0Z" fill="#530494"></path></g></svg>