<svg id="visual" viewBox="0 0 4180 1980" width="4180" height="1980" xmlns="http://www.w3.org/2000/svg" xmlns:xlink="http://www.w3.org/1999/xlink" version="1.1"><rect width="4180" height="1980" fill="#001829"></rect><g><g transform="translate(3554 943)"><path d="M0 -51.3L22.3 -46.2L40.1 -32L50 -11.4L50 11.4L40.1 32L22.3 46.2L0 51.3L-22.3 46.2L-40.1 32L-50 11.4L-50 -11.4L-40.1 -32L-22.3 -46.2Z" fill="#6629a6"></path></g><g transform="translate(876 652)"><path d="M0 -51L22.1 -45.9L39.9 -31.8L49.7 -11.3L49.7 11.3L39.9 31.8L22.1 45.9L0 51L-22.1 45.9L-39.9 31.8L-49.7 11.3L-49.7 -11.3L-39.9 -31.8L-22.1 -45.9Z" fill="#6629a6"></path></g><g transform="translate(1581 196)"><path d="M0 -51L22.1 -45.9L39.9 -31.8L49.7 -11.3L49.7 11.3L39.9 31.8L22.1 45.9L0 51L-22.1 45.9L-39.9 31.8L-49.7 11.3L-49.7 -11.3L-39.9 -31.8L-22.1 -45.9Z" fill="#6629a6"></path></g><g transform="translate(1222 1850)"><path d="M0 -51L22.1 -45.9L39.9 -31.8L49.7 -11.3L49.7 11.3L39.9 31.8L22.1 45.9L0 51L-22.1 45.9L-39.9 31.8L-49.7 11.3L-49.7 -11.3L-39.9 -31.8L-22.1 -45.9Z" fill="#6629a6"></path></g><g transform="translate(2112 1516)"><path d="M0 -51L22.1 -45.9L39.9 -31.8L49.7 -11.3L49.7 11.3L39.9 31.8L22.1 45.9L0 51L-22.1 45.9L-39.9 31.8L-49.7 11.3L-49.7 -11.3L-39.9 -31.8L-22.1 -45.9Z" fill="#6629a6"></path></g><g transform="translate(2049 136)"><path d="M0 -51L22.1 -45.9L39.9 -31.8L49.7 -11.3L49.7 11.3L39.9 31.8L22.1 45.9L0 51L-22.1 45.9L-39.9 31.8L-49.7 11.3L-49.7 -11.3L-39.9 -31.8L-22.1 -45.9Z" fill="#6629a6"></path></g><g transform="translate(399 357)"><path d="M0 -51L22.1 -45.9L39.9 -31.8L49.7 -11.3L49.7 11.3L39.9 31.8L22.1 45.9L0 51L-22.1 45.9L-39.9 31.8L-49.7 11.3L-49.7 -11.3L-39.9 -31.8L-22.1 -45.9Z" fill="#6629a6"></path></g><g transform="translate(500 285)"><path d="M0 -51L22.1 -45.9L39.9 -31.8L49.7 -11.3L49.7 11.3L39.9 31.8L22.1 45.9L0 51L-22.1 45.9L-39.9 31.8L-49.7 11.3L-49.7 -11.3L-39.9 -31.8L-22.1 -45.9Z" fill="#6629a6"></path></g><g transform="translate(1882 1258)"><path d="M0 -51L22.1 -45.9L39.9 -31.8L49.7 -11.3L49.7 11.3L39.9 31.8L22.1 45.9L0 51L-22.1 45.9L-39.9 31.8L-49.7 11.3L-49.7 -11.3L-39.9 -31.8L-22.1 -45.9Z" fill="#6629a6"></path></g><g transform="translate(2082 1147)"><path d="M0 -51L22.1 -45.9L39.9 -31.8L49.7 -11.3L49.7 11.3L39.9 31.8L22.1 45.9L0 51L-22.1 45.9L-39.9 31.8L-49.7 11.3L-49.7 -11.3L-39.9 -31.8L-22.1 -45.9Z" fill="#6629a6"></path></g><g transform="translate(795 1371)"><path d="M0 -51L22.1 -45.9L39.9 -31.8L49.7 -11.3L49.7 11.3L39.9 31.8L22.1 45.9L0 51L-22.1 45.9L-39.9 31.8L-49.7 11.3L-49.7 -11.3L-39.9 -31.8L-22.1 -45.9Z" fill="#6629a6"></path></g><g transform="translate(1169 1757)"><path d="M0 -51L22.1 -45.9L39.9 -31.8L49.7 -11.3L49.7 11.3L39.9 31.8L22.1 45.9L0 51L-22.1 45.9L-39.9 31.8L-49.7 11.3L-49.7 -11.3L-39.9 -31.8L-22.1 -45.9Z" fill="#6629a6"></path></g><g transform="translate(3567 740)"><path d="M0 -51L22.1 -45.9L39.9 -31.8L49.7 -11.3L49.7 11.3L39.9 31.8L22.1 45.9L0 51L-22.1 45.9L-39.9 31.8L-49.7 11.3L-49.7 -11.3L-39.9 -31.8L-22.1 -45.9Z" fill="#6629a6"></path></g><g transform="translate(734 671)"><path d="M0 -51L22.1 -45.9L39.9 -31.8L49.7 -11.3L49.7 11.3L39.9 31.8L22.1 45.9L0 51L-22.1 45.9L-39.9 31.8L-49.7 11.3L-49.7 -11.3L-39.9 -31.8L-22.1 -45.9Z" fill="#6629a6"></path></g><g transform="translate(2888 1683)"><path d="M0 -51L22.1 -45.9L39.9 -31.8L49.7 -11.3L49.7 11.3L39.9 31.8L22.1 45.9L0 51L-22.1 45.9L-39.9 31.8L-49.7 11.3L-49.7 -11.3L-39.9 -31.8L-22.1 -45.9Z" fill="#6629a6"></path></g><g transform="translate(2436 374)"><path d="M0 -51L22.1 -45.9L39.9 -31.8L49.7 -11.3L49.7 11.3L39.9 31.8L22.1 45.9L0 51L-22.1 45.9L-39.9 31.8L-49.7 11.3L-49.7 -11.3L-39.9 -31.8L-22.1 -45.9Z" fill="#6629a6"></path></g><g transform="translate(1472 91)"><path d="M0 -51L22.1 -45.9L39.9 -31.8L49.7 -11.3L49.7 11.3L39.9 31.8L22.1 45.9L0 51L-22.1 45.9L-39.9 31.8L-49.7 11.3L-49.7 -11.3L-39.9 -31.8L-22.1 -45.9Z" fill="#6629a6"></path></g><g transform="translate(1254 783)"><path d="M0 -51L22.1 -45.9L39.9 -31.8L49.7 -11.3L49.7 11.3L39.9 31.8L22.1 45.9L0 51L-22.1 45.9L-39.9 31.8L-49.7 11.3L-49.7 -11.3L-39.9 -31.8L-22.1 -45.9Z" fill="#6629a6"></path></g><g transform="translate(3357 1303)"><path d="M0 -51L22.1 -45.9L39.9 -31.8L49.7 -11.3L49.7 11.3L39.9 31.8L22.1 45.9L0 51L-22.1 45.9L-39.9 31.8L-49.7 11.3L-49.7 -11.3L-39.9 -31.8L-22.1 -45.9Z" fill="#6629a6"></path></g><g transform="translate(1946 42)"><path d="M0 -51L22.1 -45.9L39.9 -31.8L49.7 -11.3L49.7 11.3L39.9 31.8L22.1 45.9L0 51L-22.1 45.9L-39.9 31.8L-49.7 11.3L-49.7 -11.3L-39.9 -31.8L-22.1 -45.9Z" fill="#6629a6"></path></g><g transform="translate(1244 215)"><path d="M0 -51L22.1 -45.9L39.9 -31.8L49.7 -11.3L49.7 11.3L39.9 31.8L22.1 45.9L0 51L-22.1 45.9L-39.9 31.8L-49.7 11.3L-49.7 -11.3L-39.9 -31.8L-22.1 -45.9Z" fill="#6629a6"></path></g><g transform="translate(1575 1352)"><path d="M0 -51L22.1 -45.9L39.9 -31.8L49.7 -11.3L49.7 11.3L39.9 31.8L22.1 45.9L0 51L-22.1 45.9L-39.9 31.8L-49.7 11.3L-49.7 -11.3L-39.9 -31.8L-22.1 -45.9Z" fill="#6629a6"></path></g><g transform="translate(3930 1844)"><path d="M0 -51L22.1 -45.9L39.9 -31.8L49.7 -11.3L49.7 11.3L39.9 31.8L22.1 45.9L0 51L-22.1 45.9L-39.9 31.8L-49.7 11.3L-49.7 -11.3L-39.9 -31.8L-22.1 -45.9Z" fill="#6629a6"></path></g><g transform="translate(1122 1944)"><path d="M0 -51L22.1 -45.9L39.9 -31.8L49.7 -11.3L49.7 11.3L39.9 31.8L22.1 45.9L0 51L-22.1 45.9L-39.9 31.8L-49.7 11.3L-49.7 -11.3L-39.9 -31.8L-22.1 -45.9Z" fill="#6629a6"></path></g><g transform="translate(3941 1436)"><path d="M0 -51L22.1 -45.9L39.9 -31.8L49.7 -11.3L49.7 11.3L39.9 31.8L22.1 45.9L0 51L-22.1 45.9L-39.9 31.8L-49.7 11.3L-49.7 -11.3L-39.9 -31.8L-22.1 -45.9Z" fill="#6629a6"></path></g><g transform="translate(3116 1916)"><path d="M0 -51L22.1 -45.9L39.9 -31.8L49.7 -11.3L49.7 11.3L39.9 31.8L22.1 45.9L0 51L-22.1 45.9L-39.9 31.8L-49.7 11.3L-49.7 -11.3L-39.9 -31.8L-22.1 -45.9Z" fill="#6629a6"></path></g><g transform="translate(3767 1074)"><path d="M0 -51L22.1 -45.9L39.9 -31.8L49.7 -11.3L49.7 11.3L39.9 31.8L22.1 45.9L0 51L-22.1 45.9L-39.9 31.8L-49.7 11.3L-49.7 -11.3L-39.9 -31.8L-22.1 -45.9Z" fill="#6629a6"></path></g><g transform="translate(3505 1897)"><path d="M0 -51L22.1 -45.9L39.9 -31.8L49.7 -11.3L49.7 11.3L39.9 31.8L22.1 45.9L0 51L-22.1 45.9L-39.9 31.8L-49.7 11.3L-49.7 -11.3L-39.9 -31.8L-22.1 -45.9Z" fill="#6629a6"></path></g><g transform="translate(3993 353)"><path d="M0 -51L22.1 -45.9L39.9 -31.8L49.7 -11.3L49.7 11.3L39.9 31.8L22.1 45.9L0 51L-22.1 45.9L-39.9 31.8L-49.7 11.3L-49.7 -11.3L-39.9 -31.8L-22.1 -45.9Z" fill="#6629a6"></path></g><g transform="translate(224 195)"><path d="M0 -51L22.1 -45.9L39.9 -31.8L49.7 -11.3L49.7 11.3L39.9 31.8L22.1 45.9L0 51L-22.1 45.9L-39.9 31.8L-49.7 11.3L-49.7 -11.3L-39.9 -31.8L-22.1 -45.9Z" fill="#6629a6"></path></g><g transform="translate(353 771)"><path d="M0 -51L22.1 -45.9L39.9 -31.8L49.7 -11.3L49.7 11.3L39.9 31.8L22.1 45.9L0 51L-22.1 45.9L-39.9 31.8L-49.7 11.3L-49.7 -11.3L-39.9 -31.8L-22.1 -45.9Z" fill="#6629a6"></path></g><g transform="translate(2954 1164)"><path d="M0 -51L22.1 -45.9L39.9 -31.8L49.7 -11.3L49.7 11.3L39.9 31.8L22.1 45.9L0 51L-22.1 45.9L-39.9 31.8L-49.7 11.3L-49.7 -11.3L-39.9 -31.8L-22.1 -45.9Z" fill="#6629a6"></path></g><g transform="translate(3793 1374)"><path d="M0 -51L22.1 -45.9L39.9 -31.8L49.7 -11.3L49.7 11.3L39.9 31.8L22.1 45.9L0 51L-22.1 45.9L-39.9 31.8L-49.7 11.3L-49.7 -11.3L-39.9 -31.8L-22.1 -45.9Z" fill="#6629a6"></path></g><g transform="translate(125 1252)"><path d="M0 -51L22.1 -45.9L39.9 -31.8L49.7 -11.3L49.7 11.3L39.9 31.8L22.1 45.9L0 51L-22.1 45.9L-39.9 31.8L-49.7 11.3L-49.7 -11.3L-39.9 -31.8L-22.1 -45.9Z" fill="#6629a6"></path></g></g></svg>