<svg id="visual" viewBox="0 0 4180 1980" width="4180" height="1980" xmlns="http://www.w3.org/2000/svg" xmlns:xlink="http://www.w3.org/1999/xlink" version="1.1"><rect x="0" y="0" width="4180" height="1980" fill="#002233"></rect><path d="M0 1534L36.7 1509.3C73.3 1484.7 146.7 1435.3 220 1452.2C293.3 1469 366.7 1552 440 1597.3C513.3 1642.7 586.7 1650.3 660 1631.8C733.3 1613.3 806.7 1568.7 880 1547C953.3 1525.3 1026.7 1526.7 1100 1547.8C1173.3 1569 1246.7 1610 1320 1589.7C1393.3 1569.3 1466.7 1487.7 1540 1436.3C1613.3 1385 1686.7 1364 1760 1398.7C1833.3 1433.3 1906.7 1523.7 1980 1539.5C2053.3 1555.3 2126.7 1496.7 2200 1461.8C2273.3 1427 2346.7 1416 2420 1454.8C2493.3 1493.7 2566.7 1582.3 2640 1612.2C2713.3 1642 2786.7 1613 2860 1585.5C2933.3 1558 3006.7 1532 3080 1494.7C3153.3 1457.3 3226.7 1408.7 3300 1428.3C3373.3 1448 3446.7 1536 3520 1571.2C3593.3 1606.3 3666.7 1588.7 3740 1575C3813.3 1561.3 3886.7 1551.7 3960 1511C4033.3 1470.3 4106.7 1398.7 4143.3 1362.8L4180 1327L4180 1981L4143.3 1981C4106.7 1981 4033.3 1981 3960 1981C3886.7 1981 3813.3 1981 3740 1981C3666.7 1981 3593.3 1981 3520 1981C3446.7 1981 3373.3 1981 3300 1981C3226.7 1981 3153.3 1981 3080 1981C3006.7 1981 2933.3 1981 2860 1981C2786.7 1981 2713.3 1981 2640 1981C2566.7 1981 2493.3 1981 2420 1981C2346.7 1981 2273.3 1981 2200 1981C2126.7 1981 2053.3 1981 1980 1981C1906.7 1981 1833.3 1981 1760 1981C1686.7 1981 1613.3 1981 1540 1981C1466.7 1981 1393.3 1981 1320 1981C1246.7 1981 1173.3 1981 1100 1981C1026.7 1981 953.3 1981 880 1981C806.7 1981 733.3 1981 660 1981C586.7 1981 513.3 1981 440 1981C366.7 1981 293.3 1981 220 1981C146.7 1981 73.3 1981 36.7 1981L0 1981Z" fill="#3e00ff" stroke-linecap="round" stroke-linejoin="miter"></path></svg>